<svg width="28" height="28" viewBox="0 0 28 28" fill="none" xmlns="http://www.w3.org/2000/svg">
<path d="M14 28C6.2678 28 0 21.7322 0 14C0 6.2678 6.2678 0 14 0C21.7322 0 28 6.2678 28 14C28 21.7322 21.7322 28 14 28ZM12.6 18.2V21H15.4V18.2H12.6ZM15.4 15.897C16.5251 15.5579 17.491 14.8259 18.1218 13.8344C18.7526 12.8429 19.0063 11.6579 18.8366 10.4951C18.667 9.33223 18.0854 8.26901 17.1976 7.49904C16.3099 6.72906 15.1751 6.30355 14 6.3C12.8671 6.29965 11.7691 6.69185 10.8928 7.40987C10.0166 8.12789 9.41617 9.12736 9.1938 10.2382L11.9406 10.7884C12.0186 10.3984 12.2056 10.0386 12.4801 9.75074C12.7546 9.46292 13.1051 9.25896 13.491 9.16259C13.8769 9.06621 14.2821 9.08139 14.6597 9.20636C15.0373 9.33132 15.3716 9.56093 15.6238 9.86847C15.8759 10.176 16.0356 10.5488 16.0842 10.9436C16.1327 11.3383 16.0682 11.7387 15.8981 12.0982C15.728 12.4577 15.4593 12.7615 15.1233 12.9743C14.7872 13.187 14.3977 13.3 14 13.3C13.6287 13.3 13.2726 13.4475 13.0101 13.7101C12.7475 13.9726 12.6 14.3287 12.6 14.7V16.8H15.4V15.897Z" fill="#857E7E"/>
</svg>
